<mxfile host="app.diagrams.net" modified="2022-06-21T11:25:00.068Z" agent="5.0 (Macintosh; Intel Mac OS X 10_15_7) AppleWebKit/537.36 (KHTML, like Gecko) Chrome/100.0.4896.88 Safari/537.36" etag="gOzCHXU7fSGFMs0uWKbR" version="20.0.1" type="github">
  <diagram id="0fGZ7hTNwW_brKjwEotY" name="Page-1">
    <mxGraphModel dx="785" dy="488" grid="1" gridSize="10" guides="1" tooltips="1" connect="1" arrows="1" fold="1" page="1" pageScale="1" pageWidth="850" pageHeight="1100" math="0" shadow="0">
      <root>
        <mxCell id="0" />
        <mxCell id="1" parent="0" />
        <mxCell id="9cPGQ39VDWzeO-hUbgn7-2" value="buys" style="rhombus;whiteSpace=wrap;html=1;" parent="1" vertex="1">
          <mxGeometry x="360" y="220" width="120" height="50" as="geometry" />
        </mxCell>
        <mxCell id="9cPGQ39VDWzeO-hUbgn7-3" value="provides for" style="rhombus;whiteSpace=wrap;html=1;" parent="1" vertex="1">
          <mxGeometry x="360" y="150" width="120" height="50" as="geometry" />
        </mxCell>
        <mxCell id="9cPGQ39VDWzeO-hUbgn7-4" value="enterprise" style="rounded=0;whiteSpace=wrap;html=1;" parent="1" vertex="1">
          <mxGeometry x="200" y="180" width="100" height="50" as="geometry" />
        </mxCell>
        <mxCell id="9cPGQ39VDWzeO-hUbgn7-5" value="university" style="rounded=0;whiteSpace=wrap;html=1;" parent="1" vertex="1">
          <mxGeometry x="540" y="180" width="100" height="50" as="geometry" />
        </mxCell>
        <mxCell id="9cPGQ39VDWzeO-hUbgn7-6" value="" style="endArrow=none;html=1;rounded=0;exitX=1;exitY=0.5;exitDx=0;exitDy=0;entryX=0;entryY=0.5;entryDx=0;entryDy=0;" parent="1" source="9cPGQ39VDWzeO-hUbgn7-4" target="9cPGQ39VDWzeO-hUbgn7-3" edge="1">
          <mxGeometry width="50" height="50" relative="1" as="geometry">
            <mxPoint x="380" y="280" as="sourcePoint" />
            <mxPoint x="430" y="230" as="targetPoint" />
          </mxGeometry>
        </mxCell>
        <mxCell id="9cPGQ39VDWzeO-hUbgn7-7" value="" style="endArrow=none;html=1;rounded=0;exitX=1;exitY=0.5;exitDx=0;exitDy=0;entryX=0;entryY=0.5;entryDx=0;entryDy=0;" parent="1" source="9cPGQ39VDWzeO-hUbgn7-4" target="9cPGQ39VDWzeO-hUbgn7-2" edge="1">
          <mxGeometry width="50" height="50" relative="1" as="geometry">
            <mxPoint x="300" y="200" as="sourcePoint" />
            <mxPoint x="430" y="230" as="targetPoint" />
          </mxGeometry>
        </mxCell>
        <mxCell id="9cPGQ39VDWzeO-hUbgn7-8" value="" style="endArrow=none;html=1;rounded=0;entryX=0;entryY=0.5;entryDx=0;entryDy=0;exitX=1;exitY=0.5;exitDx=0;exitDy=0;" parent="1" source="9cPGQ39VDWzeO-hUbgn7-3" target="9cPGQ39VDWzeO-hUbgn7-5" edge="1">
          <mxGeometry width="50" height="50" relative="1" as="geometry">
            <mxPoint x="380" y="280" as="sourcePoint" />
            <mxPoint x="430" y="230" as="targetPoint" />
          </mxGeometry>
        </mxCell>
        <mxCell id="9cPGQ39VDWzeO-hUbgn7-9" value="" style="endArrow=none;html=1;rounded=0;entryX=0;entryY=0.5;entryDx=0;entryDy=0;exitX=1;exitY=0.5;exitDx=0;exitDy=0;" parent="1" source="9cPGQ39VDWzeO-hUbgn7-2" target="9cPGQ39VDWzeO-hUbgn7-5" edge="1">
          <mxGeometry width="50" height="50" relative="1" as="geometry">
            <mxPoint x="380" y="280" as="sourcePoint" />
            <mxPoint x="430" y="230" as="targetPoint" />
          </mxGeometry>
        </mxCell>
        <mxCell id="9cPGQ39VDWzeO-hUbgn7-10" value="M" style="text;html=1;strokeColor=none;fillColor=none;align=center;verticalAlign=middle;whiteSpace=wrap;rounded=0;" parent="1" vertex="1">
          <mxGeometry x="330" y="170" width="60" height="30" as="geometry" />
        </mxCell>
        <mxCell id="9cPGQ39VDWzeO-hUbgn7-11" value="M" style="text;html=1;strokeColor=none;fillColor=none;align=center;verticalAlign=middle;whiteSpace=wrap;rounded=0;" parent="1" vertex="1">
          <mxGeometry x="450" y="170" width="60" height="30" as="geometry" />
        </mxCell>
        <mxCell id="9cPGQ39VDWzeO-hUbgn7-12" value="M" style="text;html=1;strokeColor=none;fillColor=none;align=center;verticalAlign=middle;whiteSpace=wrap;rounded=0;" parent="1" vertex="1">
          <mxGeometry x="330" y="220" width="60" height="30" as="geometry" />
        </mxCell>
        <mxCell id="9cPGQ39VDWzeO-hUbgn7-13" value="1" style="text;html=1;strokeColor=none;fillColor=none;align=center;verticalAlign=middle;whiteSpace=wrap;rounded=0;" parent="1" vertex="1">
          <mxGeometry x="450" y="210" width="60" height="30" as="geometry" />
        </mxCell>
        <mxCell id="9cPGQ39VDWzeO-hUbgn7-15" value="has" style="rhombus;whiteSpace=wrap;html=1;" parent="1" vertex="1">
          <mxGeometry x="195" y="70" width="110" height="70" as="geometry" />
        </mxCell>
        <mxCell id="9cPGQ39VDWzeO-hUbgn7-16" value="supplies" style="rhombus;whiteSpace=wrap;html=1;" parent="1" vertex="1">
          <mxGeometry x="195" y="280" width="110" height="70" as="geometry" />
        </mxCell>
        <mxCell id="9cPGQ39VDWzeO-hUbgn7-17" value="" style="endArrow=none;html=1;rounded=0;exitX=0.5;exitY=0;exitDx=0;exitDy=0;entryX=0.5;entryY=1;entryDx=0;entryDy=0;" parent="1" source="9cPGQ39VDWzeO-hUbgn7-4" target="9cPGQ39VDWzeO-hUbgn7-15" edge="1">
          <mxGeometry width="50" height="50" relative="1" as="geometry">
            <mxPoint x="290" y="230" as="sourcePoint" />
            <mxPoint x="340" y="180" as="targetPoint" />
          </mxGeometry>
        </mxCell>
        <mxCell id="9cPGQ39VDWzeO-hUbgn7-18" value="" style="endArrow=none;html=1;rounded=0;exitX=0.5;exitY=0;exitDx=0;exitDy=0;entryX=0.5;entryY=1;entryDx=0;entryDy=0;" parent="1" source="9cPGQ39VDWzeO-hUbgn7-16" target="9cPGQ39VDWzeO-hUbgn7-4" edge="1">
          <mxGeometry width="50" height="50" relative="1" as="geometry">
            <mxPoint x="260" y="190" as="sourcePoint" />
            <mxPoint x="260" y="150" as="targetPoint" />
          </mxGeometry>
        </mxCell>
        <mxCell id="9cPGQ39VDWzeO-hUbgn7-19" value="name" style="ellipse;whiteSpace=wrap;html=1;" parent="1" vertex="1">
          <mxGeometry x="50" y="85" width="70" height="40" as="geometry" />
        </mxCell>
        <mxCell id="9cPGQ39VDWzeO-hUbgn7-20" value="fName" style="ellipse;whiteSpace=wrap;html=1;" parent="1" vertex="1">
          <mxGeometry y="20" width="70" height="40" as="geometry" />
        </mxCell>
        <mxCell id="9cPGQ39VDWzeO-hUbgn7-21" value="sName" style="ellipse;whiteSpace=wrap;html=1;" parent="1" vertex="1">
          <mxGeometry x="90" y="20" width="70" height="40" as="geometry" />
        </mxCell>
        <mxCell id="9cPGQ39VDWzeO-hUbgn7-23" value="id" style="ellipse;whiteSpace=wrap;html=1;fontStyle=4" parent="1" vertex="1">
          <mxGeometry x="50" y="140" width="70" height="40" as="geometry" />
        </mxCell>
        <mxCell id="9cPGQ39VDWzeO-hUbgn7-24" value="phone" style="ellipse;whiteSpace=wrap;html=1;" parent="1" vertex="1">
          <mxGeometry x="50" y="200" width="70" height="40" as="geometry" />
        </mxCell>
        <mxCell id="9cPGQ39VDWzeO-hUbgn7-25" value="socialM" style="ellipse;whiteSpace=wrap;html=1;" parent="1" vertex="1">
          <mxGeometry x="50" y="260" width="70" height="40" as="geometry" />
        </mxCell>
        <mxCell id="9cPGQ39VDWzeO-hUbgn7-26" value="" style="endArrow=none;html=1;rounded=0;exitX=1;exitY=0.5;exitDx=0;exitDy=0;entryX=0;entryY=0.5;entryDx=0;entryDy=0;" parent="1" source="9cPGQ39VDWzeO-hUbgn7-19" target="9cPGQ39VDWzeO-hUbgn7-15" edge="1">
          <mxGeometry width="50" height="50" relative="1" as="geometry">
            <mxPoint x="290" y="230" as="sourcePoint" />
            <mxPoint x="340" y="180" as="targetPoint" />
          </mxGeometry>
        </mxCell>
        <mxCell id="9cPGQ39VDWzeO-hUbgn7-27" value="" style="endArrow=none;html=1;rounded=0;exitX=0.729;exitY=1;exitDx=0;exitDy=0;exitPerimeter=0;entryX=0.414;entryY=-0.025;entryDx=0;entryDy=0;entryPerimeter=0;" parent="1" source="9cPGQ39VDWzeO-hUbgn7-20" target="9cPGQ39VDWzeO-hUbgn7-19" edge="1">
          <mxGeometry width="50" height="50" relative="1" as="geometry">
            <mxPoint x="290" y="230" as="sourcePoint" />
            <mxPoint x="340" y="180" as="targetPoint" />
          </mxGeometry>
        </mxCell>
        <mxCell id="9cPGQ39VDWzeO-hUbgn7-28" value="" style="endArrow=none;html=1;rounded=0;entryX=0.5;entryY=1;entryDx=0;entryDy=0;exitX=0.5;exitY=0;exitDx=0;exitDy=0;" parent="1" source="9cPGQ39VDWzeO-hUbgn7-19" target="9cPGQ39VDWzeO-hUbgn7-21" edge="1">
          <mxGeometry width="50" height="50" relative="1" as="geometry">
            <mxPoint x="290" y="230" as="sourcePoint" />
            <mxPoint x="340" y="180" as="targetPoint" />
          </mxGeometry>
        </mxCell>
        <mxCell id="9cPGQ39VDWzeO-hUbgn7-30" value="" style="endArrow=none;html=1;rounded=0;exitX=1;exitY=0.5;exitDx=0;exitDy=0;entryX=0;entryY=0.5;entryDx=0;entryDy=0;" parent="1" source="9cPGQ39VDWzeO-hUbgn7-23" target="9cPGQ39VDWzeO-hUbgn7-15" edge="1">
          <mxGeometry width="50" height="50" relative="1" as="geometry">
            <mxPoint x="290" y="230" as="sourcePoint" />
            <mxPoint x="340" y="180" as="targetPoint" />
          </mxGeometry>
        </mxCell>
        <mxCell id="9cPGQ39VDWzeO-hUbgn7-31" value="" style="endArrow=none;html=1;rounded=0;exitX=1;exitY=0.5;exitDx=0;exitDy=0;entryX=0;entryY=0.5;entryDx=0;entryDy=0;" parent="1" source="9cPGQ39VDWzeO-hUbgn7-24" target="9cPGQ39VDWzeO-hUbgn7-15" edge="1">
          <mxGeometry width="50" height="50" relative="1" as="geometry">
            <mxPoint x="290" y="230" as="sourcePoint" />
            <mxPoint x="340" y="180" as="targetPoint" />
          </mxGeometry>
        </mxCell>
        <mxCell id="9cPGQ39VDWzeO-hUbgn7-32" value="" style="endArrow=none;html=1;rounded=0;exitX=1;exitY=0.5;exitDx=0;exitDy=0;entryX=0;entryY=0.5;entryDx=0;entryDy=0;" parent="1" source="9cPGQ39VDWzeO-hUbgn7-25" target="9cPGQ39VDWzeO-hUbgn7-15" edge="1">
          <mxGeometry width="50" height="50" relative="1" as="geometry">
            <mxPoint x="290" y="230" as="sourcePoint" />
            <mxPoint x="190" y="110" as="targetPoint" />
          </mxGeometry>
        </mxCell>
        <mxCell id="9cPGQ39VDWzeO-hUbgn7-33" value="products" style="rounded=0;whiteSpace=wrap;html=1;" parent="1" vertex="1">
          <mxGeometry x="200" y="380" width="100" height="50" as="geometry" />
        </mxCell>
        <mxCell id="9cPGQ39VDWzeO-hUbgn7-34" value="field" style="rounded=0;whiteSpace=wrap;html=1;" parent="1" vertex="1">
          <mxGeometry x="70" y="380" width="100" height="50" as="geometry" />
        </mxCell>
        <mxCell id="9cPGQ39VDWzeO-hUbgn7-35" value="" style="endArrow=none;html=1;rounded=0;exitX=0.5;exitY=0;exitDx=0;exitDy=0;entryX=0.5;entryY=1;entryDx=0;entryDy=0;" parent="1" source="9cPGQ39VDWzeO-hUbgn7-34" target="9cPGQ39VDWzeO-hUbgn7-16" edge="1">
          <mxGeometry width="50" height="50" relative="1" as="geometry">
            <mxPoint x="290" y="360" as="sourcePoint" />
            <mxPoint x="340" y="310" as="targetPoint" />
          </mxGeometry>
        </mxCell>
        <mxCell id="9cPGQ39VDWzeO-hUbgn7-36" value="" style="endArrow=none;html=1;rounded=0;exitX=0.5;exitY=0;exitDx=0;exitDy=0;" parent="1" source="9cPGQ39VDWzeO-hUbgn7-33" edge="1">
          <mxGeometry width="50" height="50" relative="1" as="geometry">
            <mxPoint x="290" y="360" as="sourcePoint" />
            <mxPoint x="250" y="350" as="targetPoint" />
          </mxGeometry>
        </mxCell>
        <mxCell id="9cPGQ39VDWzeO-hUbgn7-37" value="model" style="ellipse;whiteSpace=wrap;html=1;" parent="1" vertex="1">
          <mxGeometry x="300" y="480" width="70" height="40" as="geometry" />
        </mxCell>
        <mxCell id="9cPGQ39VDWzeO-hUbgn7-38" value="name" style="ellipse;whiteSpace=wrap;html=1;" parent="1" vertex="1">
          <mxGeometry x="215" y="480" width="70" height="40" as="geometry" />
        </mxCell>
        <mxCell id="9cPGQ39VDWzeO-hUbgn7-39" value="id" style="ellipse;whiteSpace=wrap;html=1;fontStyle=4" parent="1" vertex="1">
          <mxGeometry x="130" y="480" width="70" height="40" as="geometry" />
        </mxCell>
        <mxCell id="9cPGQ39VDWzeO-hUbgn7-40" value="" style="endArrow=none;html=1;rounded=0;exitX=0.5;exitY=0;exitDx=0;exitDy=0;" parent="1" source="9cPGQ39VDWzeO-hUbgn7-39" edge="1">
          <mxGeometry width="50" height="50" relative="1" as="geometry">
            <mxPoint x="190" y="420" as="sourcePoint" />
            <mxPoint x="250" y="430" as="targetPoint" />
          </mxGeometry>
        </mxCell>
        <mxCell id="9cPGQ39VDWzeO-hUbgn7-41" value="" style="endArrow=none;html=1;rounded=0;exitX=0.5;exitY=0;exitDx=0;exitDy=0;" parent="1" source="9cPGQ39VDWzeO-hUbgn7-38" edge="1">
          <mxGeometry width="50" height="50" relative="1" as="geometry">
            <mxPoint x="190" y="420" as="sourcePoint" />
            <mxPoint x="250" y="430" as="targetPoint" />
          </mxGeometry>
        </mxCell>
        <mxCell id="9cPGQ39VDWzeO-hUbgn7-42" value="" style="endArrow=none;html=1;rounded=0;exitX=0.5;exitY=0;exitDx=0;exitDy=0;" parent="1" source="9cPGQ39VDWzeO-hUbgn7-37" edge="1">
          <mxGeometry width="50" height="50" relative="1" as="geometry">
            <mxPoint x="190" y="420" as="sourcePoint" />
            <mxPoint x="250" y="430" as="targetPoint" />
          </mxGeometry>
        </mxCell>
        <mxCell id="9cPGQ39VDWzeO-hUbgn7-43" value="part" style="rounded=0;whiteSpace=wrap;html=1;" parent="1" vertex="1">
          <mxGeometry x="370" y="290" width="100" height="50" as="geometry" />
        </mxCell>
        <mxCell id="9cPGQ39VDWzeO-hUbgn7-44" value="" style="endArrow=none;html=1;rounded=0;exitX=1;exitY=0.5;exitDx=0;exitDy=0;entryX=0;entryY=0.5;entryDx=0;entryDy=0;" parent="1" source="9cPGQ39VDWzeO-hUbgn7-16" target="9cPGQ39VDWzeO-hUbgn7-43" edge="1">
          <mxGeometry width="50" height="50" relative="1" as="geometry">
            <mxPoint x="300" y="420" as="sourcePoint" />
            <mxPoint x="350" y="370" as="targetPoint" />
          </mxGeometry>
        </mxCell>
        <mxCell id="9cPGQ39VDWzeO-hUbgn7-45" value="consists of" style="rhombus;whiteSpace=wrap;html=1;" parent="1" vertex="1">
          <mxGeometry x="370" y="380" width="100" height="50" as="geometry" />
        </mxCell>
        <mxCell id="9cPGQ39VDWzeO-hUbgn7-46" value="" style="endArrow=none;html=1;rounded=0;entryX=0.5;entryY=1;entryDx=0;entryDy=0;exitX=0;exitY=0.5;exitDx=0;exitDy=0;" parent="1" source="9cPGQ39VDWzeO-hUbgn7-45" target="9cPGQ39VDWzeO-hUbgn7-43" edge="1">
          <mxGeometry width="50" height="50" relative="1" as="geometry">
            <mxPoint x="300" y="420" as="sourcePoint" />
            <mxPoint x="350" y="370" as="targetPoint" />
          </mxGeometry>
        </mxCell>
        <mxCell id="9cPGQ39VDWzeO-hUbgn7-47" value="" style="endArrow=none;html=1;rounded=0;" parent="1" edge="1">
          <mxGeometry width="50" height="50" relative="1" as="geometry">
            <mxPoint x="470" y="410" as="sourcePoint" />
            <mxPoint x="420" y="340" as="targetPoint" />
          </mxGeometry>
        </mxCell>
        <mxCell id="9cPGQ39VDWzeO-hUbgn7-48" value="quantity" style="ellipse;whiteSpace=wrap;html=1;" parent="1" vertex="1">
          <mxGeometry x="385" y="470" width="70" height="40" as="geometry" />
        </mxCell>
        <mxCell id="9cPGQ39VDWzeO-hUbgn7-49" value="" style="endArrow=none;html=1;rounded=0;entryX=0.5;entryY=1;entryDx=0;entryDy=0;exitX=0.5;exitY=0;exitDx=0;exitDy=0;" parent="1" target="9cPGQ39VDWzeO-hUbgn7-45" edge="1" source="9cPGQ39VDWzeO-hUbgn7-48">
          <mxGeometry width="50" height="50" relative="1" as="geometry">
            <mxPoint x="425" y="470" as="sourcePoint" />
            <mxPoint x="350" y="370" as="targetPoint" />
          </mxGeometry>
        </mxCell>
        <mxCell id="9cPGQ39VDWzeO-hUbgn7-50" value="M" style="text;html=1;strokeColor=none;fillColor=none;align=center;verticalAlign=middle;whiteSpace=wrap;rounded=0;" parent="1" vertex="1">
          <mxGeometry x="340" y="400" width="60" height="30" as="geometry" />
        </mxCell>
        <mxCell id="9cPGQ39VDWzeO-hUbgn7-51" value="M" style="text;html=1;strokeColor=none;fillColor=none;align=center;verticalAlign=middle;whiteSpace=wrap;rounded=0;" parent="1" vertex="1">
          <mxGeometry x="460" y="400" width="60" height="30" as="geometry" />
        </mxCell>
        <mxCell id="9cPGQ39VDWzeO-hUbgn7-52" value="has" style="rhombus;whiteSpace=wrap;html=1;" parent="1" vertex="1">
          <mxGeometry x="535" y="70" width="110" height="70" as="geometry" />
        </mxCell>
        <mxCell id="9cPGQ39VDWzeO-hUbgn7-53" value="" style="endArrow=none;html=1;rounded=0;entryX=0.5;entryY=1;entryDx=0;entryDy=0;exitX=0.5;exitY=0;exitDx=0;exitDy=0;" parent="1" source="9cPGQ39VDWzeO-hUbgn7-5" target="9cPGQ39VDWzeO-hUbgn7-52" edge="1">
          <mxGeometry width="50" height="50" relative="1" as="geometry">
            <mxPoint x="420" y="290" as="sourcePoint" />
            <mxPoint x="470" y="240" as="targetPoint" />
          </mxGeometry>
        </mxCell>
        <mxCell id="9cPGQ39VDWzeO-hUbgn7-54" value="name" style="ellipse;whiteSpace=wrap;html=1;" parent="1" vertex="1">
          <mxGeometry x="690" y="10" width="70" height="40" as="geometry" />
        </mxCell>
        <mxCell id="9cPGQ39VDWzeO-hUbgn7-55" value="id" style="ellipse;whiteSpace=wrap;html=1;fontStyle=4" parent="1" vertex="1">
          <mxGeometry x="690" y="50" width="70" height="40" as="geometry" />
        </mxCell>
        <mxCell id="9cPGQ39VDWzeO-hUbgn7-56" value="phone" style="ellipse;whiteSpace=wrap;html=1;" parent="1" vertex="1">
          <mxGeometry x="690" y="185" width="70" height="40" as="geometry" />
        </mxCell>
        <mxCell id="9cPGQ39VDWzeO-hUbgn7-57" value="socialM" style="ellipse;whiteSpace=wrap;html=1;" parent="1" vertex="1">
          <mxGeometry x="690" y="230" width="70" height="40" as="geometry" />
        </mxCell>
        <mxCell id="9cPGQ39VDWzeO-hUbgn7-58" value="" style="endArrow=none;html=1;rounded=0;entryX=1;entryY=0.5;entryDx=0;entryDy=0;exitX=0;exitY=0.5;exitDx=0;exitDy=0;" parent="1" source="9cPGQ39VDWzeO-hUbgn7-54" target="9cPGQ39VDWzeO-hUbgn7-52" edge="1">
          <mxGeometry width="50" height="50" relative="1" as="geometry">
            <mxPoint x="420" y="210" as="sourcePoint" />
            <mxPoint x="470" y="160" as="targetPoint" />
          </mxGeometry>
        </mxCell>
        <mxCell id="9cPGQ39VDWzeO-hUbgn7-59" value="" style="endArrow=none;html=1;rounded=0;entryX=1;entryY=0.5;entryDx=0;entryDy=0;exitX=0;exitY=0.5;exitDx=0;exitDy=0;" parent="1" source="9cPGQ39VDWzeO-hUbgn7-55" target="9cPGQ39VDWzeO-hUbgn7-52" edge="1">
          <mxGeometry width="50" height="50" relative="1" as="geometry">
            <mxPoint x="650" y="130" as="sourcePoint" />
            <mxPoint x="470" y="160" as="targetPoint" />
          </mxGeometry>
        </mxCell>
        <mxCell id="9cPGQ39VDWzeO-hUbgn7-60" value="" style="endArrow=none;html=1;rounded=0;exitX=0;exitY=0.5;exitDx=0;exitDy=0;entryX=1;entryY=0.5;entryDx=0;entryDy=0;" parent="1" source="9cPGQ39VDWzeO-hUbgn7-56" target="9cPGQ39VDWzeO-hUbgn7-52" edge="1">
          <mxGeometry width="50" height="50" relative="1" as="geometry">
            <mxPoint x="420" y="210" as="sourcePoint" />
            <mxPoint x="650" y="110" as="targetPoint" />
          </mxGeometry>
        </mxCell>
        <mxCell id="9cPGQ39VDWzeO-hUbgn7-61" value="" style="endArrow=none;html=1;rounded=0;exitX=0;exitY=0.5;exitDx=0;exitDy=0;entryX=1;entryY=0.5;entryDx=0;entryDy=0;" parent="1" source="9cPGQ39VDWzeO-hUbgn7-57" target="9cPGQ39VDWzeO-hUbgn7-52" edge="1">
          <mxGeometry width="50" height="50" relative="1" as="geometry">
            <mxPoint x="680" y="250" as="sourcePoint" />
            <mxPoint x="650" y="110" as="targetPoint" />
          </mxGeometry>
        </mxCell>
        <mxCell id="2ybxPVNN164J7KerfsGO-2" value="id" style="ellipse;whiteSpace=wrap;html=1;fontStyle=4" vertex="1" parent="1">
          <mxGeometry x="510" y="350" width="70" height="40" as="geometry" />
        </mxCell>
        <mxCell id="2ybxPVNN164J7KerfsGO-3" value="name" style="ellipse;whiteSpace=wrap;html=1;" vertex="1" parent="1">
          <mxGeometry x="510" y="410" width="70" height="40" as="geometry" />
        </mxCell>
        <mxCell id="2ybxPVNN164J7KerfsGO-4" value="" style="endArrow=none;html=1;rounded=0;exitX=0.5;exitY=0;exitDx=0;exitDy=0;entryX=1;entryY=0.5;entryDx=0;entryDy=0;" edge="1" parent="1" source="2ybxPVNN164J7KerfsGO-2" target="9cPGQ39VDWzeO-hUbgn7-43">
          <mxGeometry width="50" height="50" relative="1" as="geometry">
            <mxPoint x="515" y="450" as="sourcePoint" />
            <mxPoint x="470" y="305" as="targetPoint" />
          </mxGeometry>
        </mxCell>
        <mxCell id="2ybxPVNN164J7KerfsGO-5" value="" style="endArrow=none;html=1;rounded=0;exitX=0;exitY=0;exitDx=0;exitDy=0;entryX=1;entryY=0.5;entryDx=0;entryDy=0;" edge="1" parent="1" source="2ybxPVNN164J7KerfsGO-3" target="9cPGQ39VDWzeO-hUbgn7-43">
          <mxGeometry width="50" height="50" relative="1" as="geometry">
            <mxPoint x="555" y="360" as="sourcePoint" />
            <mxPoint x="480" y="325" as="targetPoint" />
          </mxGeometry>
        </mxCell>
        <mxCell id="2ybxPVNN164J7KerfsGO-6" value="locates at" style="rhombus;whiteSpace=wrap;html=1;" vertex="1" parent="1">
          <mxGeometry x="535" y="270" width="110" height="70" as="geometry" />
        </mxCell>
        <mxCell id="2ybxPVNN164J7KerfsGO-7" value="" style="endArrow=none;html=1;rounded=0;exitX=0.5;exitY=0;exitDx=0;exitDy=0;entryX=0.5;entryY=1;entryDx=0;entryDy=0;" edge="1" parent="1" source="2ybxPVNN164J7KerfsGO-6" target="9cPGQ39VDWzeO-hUbgn7-5">
          <mxGeometry width="50" height="50" relative="1" as="geometry">
            <mxPoint x="260" y="390" as="sourcePoint" />
            <mxPoint x="260" y="360" as="targetPoint" />
          </mxGeometry>
        </mxCell>
        <mxCell id="2ybxPVNN164J7KerfsGO-8" value="country" style="ellipse;whiteSpace=wrap;html=1;" vertex="1" parent="1">
          <mxGeometry x="690" y="300" width="70" height="40" as="geometry" />
        </mxCell>
        <mxCell id="2ybxPVNN164J7KerfsGO-10" value="state" style="ellipse;whiteSpace=wrap;html=1;" vertex="1" parent="1">
          <mxGeometry x="690" y="350" width="70" height="40" as="geometry" />
        </mxCell>
        <mxCell id="2ybxPVNN164J7KerfsGO-11" value="city" style="ellipse;whiteSpace=wrap;html=1;" vertex="1" parent="1">
          <mxGeometry x="690" y="400" width="70" height="40" as="geometry" />
        </mxCell>
        <mxCell id="2ybxPVNN164J7KerfsGO-12" value="" style="endArrow=none;html=1;rounded=0;exitX=0;exitY=0.5;exitDx=0;exitDy=0;entryX=1;entryY=0.5;entryDx=0;entryDy=0;" edge="1" parent="1" source="2ybxPVNN164J7KerfsGO-8" target="2ybxPVNN164J7KerfsGO-6">
          <mxGeometry width="50" height="50" relative="1" as="geometry">
            <mxPoint x="530.2512626584708" y="425.85786437626894" as="sourcePoint" />
            <mxPoint x="480" y="325" as="targetPoint" />
          </mxGeometry>
        </mxCell>
        <mxCell id="2ybxPVNN164J7KerfsGO-13" value="" style="endArrow=none;html=1;rounded=0;exitX=0;exitY=0.5;exitDx=0;exitDy=0;entryX=1;entryY=0.5;entryDx=0;entryDy=0;" edge="1" parent="1" source="2ybxPVNN164J7KerfsGO-10" target="2ybxPVNN164J7KerfsGO-6">
          <mxGeometry width="50" height="50" relative="1" as="geometry">
            <mxPoint x="700" y="330" as="sourcePoint" />
            <mxPoint x="655" y="315" as="targetPoint" />
          </mxGeometry>
        </mxCell>
        <mxCell id="2ybxPVNN164J7KerfsGO-14" value="" style="endArrow=none;html=1;rounded=0;exitX=0.029;exitY=0.3;exitDx=0;exitDy=0;exitPerimeter=0;entryX=1;entryY=0.5;entryDx=0;entryDy=0;" edge="1" parent="1" source="2ybxPVNN164J7KerfsGO-11" target="2ybxPVNN164J7KerfsGO-6">
          <mxGeometry width="50" height="50" relative="1" as="geometry">
            <mxPoint x="700" y="380" as="sourcePoint" />
            <mxPoint x="650" y="310" as="targetPoint" />
          </mxGeometry>
        </mxCell>
        <mxCell id="2ybxPVNN164J7KerfsGO-15" value="field" style="ellipse;whiteSpace=wrap;html=1;" vertex="1" parent="1">
          <mxGeometry x="690" y="90" width="70" height="40" as="geometry" />
        </mxCell>
        <mxCell id="2ybxPVNN164J7KerfsGO-18" value="" style="endArrow=none;html=1;rounded=0;exitX=0;exitY=0.5;exitDx=0;exitDy=0;entryX=1;entryY=0.5;entryDx=0;entryDy=0;" edge="1" parent="1" source="2ybxPVNN164J7KerfsGO-15" target="9cPGQ39VDWzeO-hUbgn7-52">
          <mxGeometry width="50" height="50" relative="1" as="geometry">
            <mxPoint x="700" y="215" as="sourcePoint" />
            <mxPoint x="655" y="115" as="targetPoint" />
          </mxGeometry>
        </mxCell>
        <mxCell id="2ybxPVNN164J7KerfsGO-19" value="professor" style="ellipse;whiteSpace=wrap;html=1;" vertex="1" parent="1">
          <mxGeometry x="690" y="140" width="70" height="40" as="geometry" />
        </mxCell>
        <mxCell id="2ybxPVNN164J7KerfsGO-20" value="" style="endArrow=none;html=1;rounded=0;exitX=0;exitY=0.5;exitDx=0;exitDy=0;entryX=1;entryY=0.5;entryDx=0;entryDy=0;" edge="1" parent="1" source="2ybxPVNN164J7KerfsGO-19" target="9cPGQ39VDWzeO-hUbgn7-52">
          <mxGeometry width="50" height="50" relative="1" as="geometry">
            <mxPoint x="700" y="215" as="sourcePoint" />
            <mxPoint x="650" y="110" as="targetPoint" />
          </mxGeometry>
        </mxCell>
      </root>
    </mxGraphModel>
  </diagram>
</mxfile>
